- 
http://www.Speed.Cd 
       
http://www.Speed.Cd      fast  and The Hottest Private Tracker on the net

(((--Registration will be open on june every weekend--)))

Please Seed back to make the speed Faster!!!

------------------nfo--------------------------
-








































          
          
              
              
                    
                    
                    
                    

Terminator.Salvation.2009.DVDRip.Xvid.AC3-SiC

Poster:
[img]http://leetleech.org/images/42788958318451554829.jpg[/img]

IMDB Link:
http://www.imdb.com/title/tt0438488/

Description:
After Skynet has destroyed much of humanity in a nuclear holocaust, a group of 
survivors led by John Connor struggles to keep the machines from finishing the 
job

MediaInfo:
General
Complete name                    : C:\Bezauk\Vdub Outputs\Terminator.Salvation.2009.DVDRip.Xvid.AC3-SiC\Terminator.Salvation.2009.DVDRip.Xvid.AC3-SiC.avi
Format                           : AVI
Format/Info                      : Audio Video Interleave
File size                        : 1.30 GiB
Duration                         : 1h 50mn
Overall bit rate                 : 1 691 Kbps

Video
ID                               : 0
Format                           : MPEG-4 Visual
Format profile                   : Advanced Simple@L5
Format settings, BVOP            : Yes
Format settings, QPel            : No
Format settings, GMC             : No warppoints
Format settings, Matrix          : Default (H.263)
Muxing mode                      : Packed bitstream
Codec ID                         : XVID
Codec ID/Hint                    : XviD
Duration                         : 1h 50mn
Bit rate                         : 1 300 Kbps
Width                            : 720 pixels
Height                           : 304 pixels
Display aspect ratio             : 2.35:1
Frame rate                       : 25.000 fps
Resolution                       : 8 bits
Colorimetry                      : 4:2:0
Scan type                        : Progressive
Bits/(Pixel*Frame)               : 0.237
Stream size                      : 1 023 MiB (77%)
Writing library                  : XviD 64

Audio
ID                               : 1
Format                           : AC-3
Format/Info                      : Audio Coding 3
Format_Settings_ModeExtension    : CM (complete main)
Codec ID                         : 2000
Duration                         : 1h 50mn
Bit rate mode                    : Constant
Bit rate                         : 384 Kbps
Channel(s)                       : 6 channels
Channel positions                : Front: L C R, Side: L R, LFE
Sampling rate                    : 48.0 KHz
Stream size                      : 302 MiB (23%)
Alignment                        : Aligned on interleaves
Interleave, duration             : 64 ms (1.60 video frames)
Interleave, preload duration     : 192 ms
Title                            : 6ch English

Screenshots:
[img]http://leetleech.org/images/79590268587080185044.png[/img]
[img]http://leetleech.org/images/51267034897428814758.png[/img]
[img]http://leetleech.org/images/35859179168315053896.png[/img]
[img]http://leetleech.org/images/70400051120780164953.png[/img]
[img]http://leetleech.org/images/49587921665348538061.png[/img]

Note :   N/A 

Source : Original DVDR

Encoder: Bezauk

Enjoy!

Respects to CaptainHomey, Cyanide, CM8, Rx, THC, ELEKTRI4KA, 
Killerhz, PA, YeFsTe, BoxSlots, MrRep and everyone in the struggle...